<svg version="1.1" xmlns="http://www.w3.org/2000/svg" viewBox="0 0 2485.0924101844466 769.5372314453124" width="2485.0924101844466" height="769.5372314453124" filter="invert(93%) hue-rotate(180deg)">
  <!-- svg-source:excalidraw -->
  
  <defs>
    <style class="style-fonts">
      @font-face {
        font-family: "Virgil";
        src: url("https://excalidraw.com/Virgil.woff2");
      }
      @font-face {
        font-family: "Cascadia";
        src: url("https://excalidraw.com/Cascadia.woff2");
      }
      @font-face {
        font-family: "Assistant";
        src: url("https://excalidraw.com/Assistant-Regular.woff2");
      }
    </style>
    
  </defs>
  <rect x="0" y="0" width="2485.0924101844466" height="769.5372314453124" fill="#ffffff"></rect><g stroke-linecap="round" transform="translate(904.7330351844465 104.1876220703125) rotate(0 96.44921875 35.5234375)"><path d="M17.76 0 C61.11 0.39, 101.96 1.21, 175.14 0 M17.76 0 C54.83 0.38, 94.03 1.28, 175.14 0 M175.14 0 C188.02 -1.71, 194.29 7.06, 192.9 17.76 M175.14 0 C188.13 2, 191.4 8.01, 192.9 17.76 M192.9 17.76 C192.31 27.64, 191.15 39.84, 192.9 53.29 M192.9 17.76 C193.55 27.26, 192.42 38.97, 192.9 53.29 M192.9 53.29 C191.2 63.75, 188.13 72.42, 175.14 71.05 M192.9 53.29 C194.78 63.84, 186.03 73.08, 175.14 71.05 M175.14 71.05 C119.56 70.82, 68.64 70.81, 17.76 71.05 M175.14 71.05 C124.7 72.77, 73.2 72.44, 17.76 71.05 M17.76 71.05 C5.13 71.66, 0.83 63.21, 0 53.29 M17.76 71.05 C3.71 69.75, -0.96 66.59, 0 53.29 M0 53.29 C-1.65 45.98, 1.83 37.85, 0 17.76 M0 53.29 C0.28 40.63, -0.12 27.97, 0 17.76 M0 17.76 C0.69 7.85, 7.4 0.53, 17.76 0 M0 17.76 C-0.51 5.35, 3.76 1.83, 17.76 0" stroke="#1e1e1e" stroke-width="2" fill="none"></path></g><g transform="translate(937.8424101844465 130.5782470703125) rotate(0 62.04194641113281 10.730448717948718)"><text x="0" y="0" font-family="Virgil, Segoe UI Emoji" font-size="17.168717948717934px" fill="#1e1e1e" text-anchor="start" style="white-space: pre;" direction="ltr" dominant-baseline="text-before-edge">encode base64</text></g><g stroke-linecap="round" transform="translate(1477.0533476844466 114.3438720703125) rotate(0 96.44921875 35.5234375)"><path d="M17.76 0 C52.05 2.46, 81.51 0.94, 175.14 0 M17.76 0 C57.21 -0.73, 95.7 -0.01, 175.14 0 M175.14 0 C188.51 -0.81, 192.04 7.36, 192.9 17.76 M175.14 0 C187.66 -2.2, 195.05 5.51, 192.9 17.76 M192.9 17.76 C194.88 27.44, 191.81 42.78, 192.9 53.29 M192.9 17.76 C193.92 26.9, 192.85 34.01, 192.9 53.29 M192.9 53.29 C193.15 64.03, 188.42 70.03, 175.14 71.05 M192.9 53.29 C195.11 67.01, 188.44 70.82, 175.14 71.05 M175.14 71.05 C118.68 72.01, 62.24 72.87, 17.76 71.05 M175.14 71.05 C132.38 71.9, 91.79 71.78, 17.76 71.05 M17.76 71.05 C5.67 72.86, 1.15 66.79, 0 53.29 M17.76 71.05 C4.85 73.16, -0.56 64.98, 0 53.29 M0 53.29 C1.42 41.81, -0.89 29.01, 0 17.76 M0 53.29 C-0.4 42.41, 0.8 31.48, 0 17.76 M0 17.76 C1.28 5.89, 5.79 0.99, 17.76 0 M0 17.76 C-1.23 5.57, 5.57 -1.82, 17.76 0" stroke="#1e1e1e" stroke-width="2" fill="none"></path></g><g transform="translate(1510.1627226844466 140.7344970703125) rotate(0 61.432769775390625 10.730448717948718)"><text x="0" y="0" font-family="Virgil, Segoe UI Emoji" font-size="17.168717948717934px" fill="#1e1e1e" text-anchor="start" style="white-space: pre;" direction="ltr" dominant-baseline="text-before-edge">generated md5</text></g><g stroke-linecap="round"><g transform="translate(1110.1314726844466 147.16839761345432) rotate(0 36.234375 0.32002029738532656)"><path d="M0.88 0.03 C13.09 0.22, 60.2 0.56, 72.3 0.7 M-0.12 -1 C12 -0.56, 59.04 1.72, 71.26 2.28" stroke="#1e1e1e" stroke-width="2" fill="none"></path></g><g transform="translate(1110.1314726844466 147.16839761345432) rotate(0 36.234375 0.32002029738532656)"><path d="M47.39 9.72 C52.7 7.62, 57.99 7.88, 71.26 2.28 M47.39 9.72 C55.34 7.87, 63.37 4.14, 71.26 2.28" stroke="#1e1e1e" stroke-width="2" fill="none"></path></g><g transform="translate(1110.1314726844466 147.16839761345432) rotate(0 36.234375 0.32002029738532656)"><path d="M48.19 -7.37 C53.26 -5.71, 58.38 -1.7, 71.26 2.28 M48.19 -7.37 C56.04 -3.75, 63.82 -2.02, 71.26 2.28" stroke="#1e1e1e" stroke-width="2" fill="none"></path></g></g><mask></mask><g stroke-linecap="round" transform="translate(1198.3775664344466 108.5274658203125) rotate(0 96.44921875 35.5234375)"><path d="M17.76 0 C66.57 1.38, 112.71 1.59, 175.14 0 M17.76 0 C59.24 0.58, 102.3 0.94, 175.14 0 M175.14 0 C186.82 0.34, 192.68 4.62, 192.9 17.76 M175.14 0 C187.88 -1.38, 193.57 6.18, 192.9 17.76 M192.9 17.76 C192.74 26.7, 192.37 35.11, 192.9 53.29 M192.9 17.76 C193.22 28.54, 193.73 38.39, 192.9 53.29 M192.9 53.29 C193.93 65.28, 186.93 70.62, 175.14 71.05 M192.9 53.29 C195.04 64.88, 186.3 70.99, 175.14 71.05 M175.14 71.05 C115 72.43, 51.48 71.69, 17.76 71.05 M175.14 71.05 C136.27 72.03, 95.39 71.87, 17.76 71.05 M17.76 71.05 C6.02 69.12, -1.45 66.76, 0 53.29 M17.76 71.05 C7.02 71.22, 1.25 66.45, 0 53.29 M0 53.29 C1.25 37.82, 0.08 26.45, 0 17.76 M0 53.29 C-0.01 40.11, 0.53 27.55, 0 17.76 M0 17.76 C-0.01 6.51, 4.34 0.16, 17.76 0 M0 17.76 C-1.25 4.65, 6.52 -0.6, 17.76 0" stroke="#1e1e1e" stroke-width="2" fill="none"></path></g><g transform="translate(1231.4869414344466 134.9180908203125) rotate(0 55.26374053955078 10.730448717948718)"><text x="0" y="0" font-family="Virgil, Segoe UI Emoji" font-size="17.168717948717934px" fill="#1e1e1e" text-anchor="start" style="white-space: pre;" direction="ltr" dominant-baseline="text-before-edge">encrypt data</text></g><g stroke-linecap="round"><g transform="translate(1401.3189726844466 150.05888227161813) rotate(0 33.265625 0.3511439117937982)"><path d="M0.43 0.67 C11.75 0.83, 55.94 1.43, 67.11 1.48 M-0.8 -0.02 C10.48 -0.24, 55.14 -0.64, 66.46 -0.24" stroke="#1e1e1e" stroke-width="2" fill="none"></path></g><g transform="translate(1401.3189726844466 150.05888227161813) rotate(0 33.265625 0.3511439117937982)"><path d="M42.88 8.08 C49.49 7.01, 55.18 5.57, 66.46 -0.24 M42.88 8.08 C50.5 4.47, 58.9 2.51, 66.46 -0.24" stroke="#1e1e1e" stroke-width="2" fill="none"></path></g><g transform="translate(1401.3189726844466 150.05888227161813) rotate(0 33.265625 0.3511439117937982)"><path d="M43.06 -9.02 C49.69 -6.09, 55.35 -3.52, 66.46 -0.24 M43.06 -9.02 C50.55 -7.14, 58.9 -3.59, 66.46 -0.24" stroke="#1e1e1e" stroke-width="2" fill="none"></path></g></g><mask></mask><g stroke-linecap="round" transform="translate(1748.2799101844466 115.5118408203125) rotate(0 96.44921875 35.5234375)"><path d="M17.76 0 C78.98 -3.22, 142.5 -2.33, 175.14 0 M17.76 0 C72.52 0.74, 124.3 0.9, 175.14 0 M175.14 0 C186.04 0.31, 194.06 7.62, 192.9 17.76 M175.14 0 C188.21 -2.11, 192.5 6.15, 192.9 17.76 M192.9 17.76 C193.95 25.82, 190.98 34.5, 192.9 53.29 M192.9 17.76 C192.93 25.02, 192.95 33.76, 192.9 53.29 M192.9 53.29 C191.8 63.45, 186.72 70.1, 175.14 71.05 M192.9 53.29 C192.01 67.37, 188.98 69.87, 175.14 71.05 M175.14 71.05 C129.88 71.6, 88.6 70.71, 17.76 71.05 M175.14 71.05 C141.3 71.46, 106.82 70.18, 17.76 71.05 M17.76 71.05 C5.66 72.29, 1.68 66.77, 0 53.29 M17.76 71.05 C3.8 71.68, 2.24 64.67, 0 53.29 M0 53.29 C-1.76 44.86, -1.83 37.44, 0 17.76 M0 53.29 C0.82 42.74, 1.17 31.63, 0 17.76 M0 17.76 C-0.17 6.09, 7.89 -1.42, 17.76 0 M0 17.76 C0.7 7.24, 5.56 1.55, 17.76 0" stroke="#1e1e1e" stroke-width="2" fill="none"></path></g><g transform="translate(1767.8697539344466 141.9884033203125) rotate(0 78.22380065917969 10.730448717948718)"><text x="0" y="0" font-family="Virgil, Segoe UI Emoji" font-size="17.168717948717934px" fill="#1e1e1e" text-anchor="start" style="white-space: pre;" direction="ltr" dominant-baseline="text-before-edge">upload to dontpad</text></g><g stroke-linecap="round"><g transform="translate(1678.2174101844466 155.0743408203125) rotate(0 29.796875 0.037109375)"><path d="M-0.6 -0.56 C9.26 -0.68, 49.96 -1.06, 59.99 -1.12 M1.28 1.76 C10.95 1.77, 49.67 0.1, 59.25 -0.21" stroke="#1e1e1e" stroke-width="2" fill="none"></path></g><g transform="translate(1678.2174101844466 155.0743408203125) rotate(0 29.796875 0.037109375)"><path d="M36.1 9.22 C43.7 6.54, 51.14 2.38, 59.25 -0.21 M36.1 9.22 C40.54 6.79, 45.85 4.9, 59.25 -0.21" stroke="#1e1e1e" stroke-width="2" fill="none"></path></g><g transform="translate(1678.2174101844466 155.0743408203125) rotate(0 29.796875 0.037109375)"><path d="M35.45 -7.87 C43.23 -4.27, 50.91 -2.16, 59.25 -0.21 M35.45 -7.87 C39.99 -6.58, 45.44 -4.75, 59.25 -0.21" stroke="#1e1e1e" stroke-width="2" fill="none"></path></g></g><mask></mask><g stroke-linecap="round" transform="translate(2011.6510039344466 115.9649658203125) rotate(0 96.44921875 35.5234375)"><path d="M0 0 C0 0, 0 0, 0 0 M0 0 C0 0, 0 0, 0 0 M0.83 13.84 C1.9 10.56, 1.92 3.85, 13.38 -3.1 M-1.24 11.16 C3.42 9.82, 6.17 3.06, 11.61 -1.01 M2.72 26.15 C7.2 19.62, 13.99 9.54, 23.11 1.18 M1.8 24.52 C7.63 14.46, 15.32 6.84, 21.02 -1.75 M1.74 33.57 C6.42 26.15, 12.01 21.74, 29.39 2.38 M0.34 36.13 C9.95 24.04, 17.2 15.12, 30.26 0.65 M-0.34 45.95 C10.42 36.63, 21.84 25.77, 40.51 -1.98 M-2.08 50.16 C12.11 35.18, 24.59 19.97, 42.78 -1.62 M1.43 60.82 C18.14 45, 29.95 26.13, 55.28 0.34 M-1.19 59.81 C10.72 46.11, 23.93 32.73, 52.19 -0.63 M1.59 75.14 C20.4 44.41, 47.39 18, 66.65 -1.32 M0.53 70.78 C19.93 53.7, 35.75 32.72, 62.08 0.46 M10.27 72.14 C28.77 51.64, 45.07 39.55, 76.52 -1.43 M12.59 70.36 C32.02 46.97, 54.88 23.8, 75.6 -1.12 M24.57 76.16 C45.78 42.66, 70.81 20.76, 82.66 0.89 M22.51 70.61 C35.48 57.57, 52.66 40.38, 86.98 1.64 M36.3 74.53 C51.52 51.09, 73.01 28.29, 93.58 0.98 M32.27 72.56 C53.26 45.42, 78.42 18.51, 95.12 1.01 M44.98 76.05 C58.86 57.72, 73.25 40.21, 107.36 -0.28 M42 72.99 C58.46 56.52, 72.82 39.07, 107.16 -0.07 M52.75 74.11 C70.97 46.48, 94.69 20.02, 117.95 3.51 M53.58 73.86 C68.83 50.32, 86.12 29.68, 115.36 0.19 M63.23 69.77 C85.49 47.61, 100.03 31.88, 128.58 0.27 M64.16 73.73 C78.21 55.33, 93.83 39.44, 127.32 0.91 M76.38 74.97 C84.92 61.03, 100.33 43.39, 138.79 3.18 M73.76 73.22 C99.64 44.83, 120.56 17.96, 135.57 -1.57 M87.4 71.58 C106.99 45.66, 123.64 28.66, 149.83 2.71 M86.8 70.45 C108.13 45.78, 132.83 17.79, 147.78 0.77 M97.61 70.55 C110.18 60.18, 119.43 44.93, 154.97 -1.43 M95.68 70.46 C114.57 53.03, 129.57 33.89, 159.67 -0.17 M105.28 71.06 C132.83 49.13, 147.99 21.53, 166.32 2.78 M106.36 72.65 C128.01 48.64, 148.22 25.34, 170.55 0.8 M116.57 71.59 C140.61 44.03, 160.16 22.79, 181.72 -1.17 M117.88 72.23 C131.8 56.4, 145.5 40.08, 180.91 1.61 M128.34 69.09 C142.73 54.4, 159.86 37.95, 187.61 0.77 M127.97 71.65 C147.44 50.86, 168.27 25.87, 191.95 -1.64 M139.07 70.12 C157.79 52.65, 172.54 32.46, 194.65 0.17 M140.57 70.04 C152.61 57.63, 166.08 40.67, 199.9 4.57 M147.73 73.9 C160.9 53.68, 178.6 45.19, 194.53 14.9 M151.41 70.63 C160.39 56.63, 173.66 43.82, 197.53 18.29 M156.62 75.51 C165.35 65.86, 178.52 54.56, 197.28 31.73 M159.58 70.22 C171.83 58.07, 183.43 45.93, 198.12 28.97 M170.29 72.98 C181.4 63.59, 189.57 50.13, 195.87 43.04 M169.1 70.59 C179.61 62.37, 186.73 50.59, 196.78 40.58 M182.39 70.44 C189.8 62.07, 194.73 56.23, 198.9 50.69 M180.44 71.96 C187.09 66.57, 189.2 61.19, 197.8 51.66 M191.43 70.53 C196.13 67.64, 195.64 65.12, 199.3 63.5 M192.14 71.97 C193.69 68.97, 195.5 68.37, 197.83 65.17 M0.29 71.3 C0.29 71.3, 0.29 71.3, 0.29 71.3 M0.29 71.3 C0.29 71.3, 0.29 71.3, 0.29 71.3 M10 72.09 C6.64 66.44, 5 65.79, -2.92 63.08 M11.7 72.65 C8.41 66.74, 2.85 63.91, 1.19 59.25 M26.99 67.72 C17.15 62.83, 8.48 60.39, 1.26 48.51 M25.96 70.72 C18.92 64.51, 10.93 59.63, -0.41 48.69 M33.72 68.69 C30.87 62.29, 21.94 58.99, -1.69 38.87 M37.15 70.07 C25.36 60.41, 12.08 49.68, 0.83 38.92 M47.83 68.07 C32.82 57.65, 24.19 45.58, 0.16 27.46 M50.1 69.22 C38.19 58.73, 27.29 51.31, 0.09 28.12 M60.26 69.23 C45.37 53.04, 29.33 39.35, -0.39 18.67 M63 71.1 C37.38 51.44, 17.62 32.02, -0.26 19 M74.77 74.29 C50.49 50.67, 28.92 30.62, 0.67 7.51 M73.74 70.34 C53.56 54.17, 30.55 33.38, 1.01 5.98 M87.59 74.95 C59.08 42.19, 29.62 22, 0.69 -2.91 M83.82 72.75 C62.42 49.37, 39.31 29.86, 4.45 -0.59 M95.54 72.73 C68.75 45.28, 40.09 17.84, 14.27 2.17 M96.78 70.29 C69.24 46.26, 39.4 22.08, 14.14 1.76 M111.87 74.5 C82.13 44.46, 57.89 27.27, 31.21 -2.36 M110.43 69.27 C86.74 50.15, 65.12 28.23, 25.96 -1.15 M122.19 68.03 C95.43 51.78, 72.77 24.09, 36.37 2.33 M122.99 72.58 C96.28 50.38, 75.89 31.61, 39.74 0.3 M136.55 70.22 C100.86 44.01, 64.47 16.55, 48.65 3.41 M133.52 72.59 C105.76 44.23, 76.24 20.22, 52.59 -1.39 M149.09 73.92 C128.61 54.48, 106.74 36.69, 64.93 -0.1 M147.93 72.71 C115.33 44.61, 84.25 18.23, 63.14 1.41 M158.14 72.18 C136.55 51.7, 118.08 35.44, 79.93 2.19 M159.34 72.29 C132.61 48.06, 107.2 24.16, 77.67 1.62 M170.15 73.78 C148.13 50, 127.61 36.12, 90.3 0.33 M170.31 68.85 C149.05 54.54, 128.31 33.96, 90.58 -1.56 M183.48 74.75 C160.85 53.66, 141.23 35.36, 102.28 -1.19 M185.01 70.27 C165.36 57.53, 149.74 42.26, 102.33 -1.17 M194.35 68.68 C170.36 44.57, 140.79 21.47, 111.84 0.82 M193.39 67.82 C161.87 44.82, 130.59 17.61, 111.88 -1.56 M189.37 58.9 C173.75 43.4, 150.03 22.73, 124.51 -0.22 M192.12 56.98 C169.41 36.04, 143.35 16.83, 126.84 -0.17 M192.36 50.37 C184.71 40.88, 167.75 25.64, 139.29 -1.13 M193.67 48.07 C171.05 30.31, 154.1 13.63, 139.72 0.72 M189.03 37.65 C176.11 23.42, 166.23 14.89, 148.73 -0.72 M191.27 38.88 C181.64 27.89, 171.48 18.32, 150.3 0.87 M196.68 28.94 C183.42 20.11, 165.89 3.49, 158.63 -0.96 M195.01 25.39 C183.13 17.33, 169.63 7.12, 161.61 1.64 M196.3 14.33 C189.67 11.73, 179.15 4.94, 172.1 -2.78 M192.16 14.71 C188.23 13.89, 183.58 8.78, 174.37 0.88 M194.86 7.31 C190.76 4.43, 186.51 1.08, 187.7 -1.49 M193.36 6.32 C192.08 3.46, 189.59 1.79, 186.55 0.33" stroke="#b2f2bb" stroke-width="1" fill="none"></path><path d="M2.44 -2.44 C50.47 -0.85, 108.29 -5.94, 189.09 0 M0.82 0.62 C77.91 -4.69, 150.74 -1.52, 193.63 -1.99 M193.47 3.2 C190.68 26.45, 195.42 48.06, 193.45 73.39 M191 -1.44 C192.21 14.03, 191.48 33.32, 194.51 72 M191.86 68.2 C145.07 72.67, 104.81 71.12, 0.98 74.81 M192.09 71.07 C143.12 74.17, 91.27 72.74, 1.92 70.58 M0.26 67.09 C1.24 52.87, 0.39 35.93, -1.51 -1.15 M-0.64 72.3 C-2.87 56.5, -0.82 43.49, 2 0.31" stroke="#1e1e1e" stroke-width="2" fill="none"></path></g><g transform="translate(2031.2408476844466 142.4415283203125) rotate(0 69.85829162597656 10.730448717948718)"><text x="0" y="0" font-family="Virgil, Segoe UI Emoji" font-size="17.168717948717934px" fill="#1e1e1e" text-anchor="start" style="white-space: pre;" direction="ltr" dominant-baseline="text-before-edge">persist to sqlite</text></g><g stroke-linecap="round"><g transform="translate(1952.2447539344466 155.8985595703125) rotate(0 25.669921875 -0.12890625)"><path d="M-1.16 0.05 C7.41 0, 41.74 -0.51, 50.29 -0.64 M0.43 -0.97 C9.47 -0.81, 43.78 0.48, 52.45 0.7" stroke="#1e1e1e" stroke-width="2" fill="none"></path></g><g transform="translate(1952.2447539344466 155.8985595703125) rotate(0 25.669921875 -0.12890625)"><path d="M28.7 8.49 C33.6 5.4, 37.68 3.62, 52.45 0.7 M28.7 8.49 C35.1 6.26, 40.71 4.67, 52.45 0.7" stroke="#1e1e1e" stroke-width="2" fill="none"></path></g><g transform="translate(1952.2447539344466 155.8985595703125) rotate(0 25.669921875 -0.12890625)"><path d="M29.24 -8.6 C33.98 -8.25, 37.95 -6.58, 52.45 0.7 M29.24 -8.6 C35.52 -6.38, 40.99 -3.52, 52.45 0.7" stroke="#1e1e1e" stroke-width="2" fill="none"></path></g></g><mask></mask><g stroke-linecap="round" transform="translate(901.6197539344465 343.3712158203125) rotate(0 96.44921875 35.5234375)"><path d="M17.76 0 C61.07 0.96, 105.37 0.49, 175.14 0 M17.76 0 C49.59 0.4, 80.65 -0.63, 175.14 0 M175.14 0 C185.11 1.52, 194.83 5.28, 192.9 17.76 M175.14 0 C188.41 -2.06, 193.07 6.22, 192.9 17.76 M192.9 17.76 C194.73 29.78, 192.92 47.54, 192.9 53.29 M192.9 17.76 C192.92 27.47, 193.75 38.87, 192.9 53.29 M192.9 53.29 C194.78 65.98, 188.91 70.02, 175.14 71.05 M192.9 53.29 C191.79 67.26, 187.62 72.07, 175.14 71.05 M175.14 71.05 C133.32 70.11, 89.13 70.11, 17.76 71.05 M175.14 71.05 C124.9 69.82, 73.07 71.63, 17.76 71.05 M17.76 71.05 C4 71.35, -0.71 63.97, 0 53.29 M17.76 71.05 C3.94 69.78, -0.15 67.22, 0 53.29 M0 53.29 C-0.88 42.82, 0.87 34.57, 0 17.76 M0 53.29 C0.11 41.44, -0.99 28.08, 0 17.76 M0 17.76 C0.63 7.12, 7.14 1.74, 17.76 0 M0 17.76 C1.76 6.42, 6.03 -0.64, 17.76 0" stroke="#1e1e1e" stroke-width="2" fill="none"></path></g><g transform="translate(956.6627226844465 369.8204345703125) rotate(0 37.142791748046875 10.730448717948718)"><text x="0" y="0" font-family="Virgil, Segoe UI Emoji" font-size="17.168717948717934px" fill="#1e1e1e" text-anchor="start" style="white-space: pre;" direction="ltr" dominant-baseline="text-before-edge">find user</text></g><g stroke-linecap="round" transform="translate(1181.1627226844466 346.2227783203125) rotate(0 96.44921875 35.5234375)"><path d="M0 0 C0 0, 0 0, 0 0 M0 0 C0 0, 0 0, 0 0 M0.13 12.04 C5.32 7.81, 7.43 1.55, 10.63 -0.03 M0.13 12.04 C2.33 9.47, 6 4.91, 10.63 -0.03 M0.27 24.08 C6.51 17.77, 11.78 8.96, 21.26 -0.07 M0.27 24.08 C5.39 17.66, 10.02 11.46, 21.26 -0.07 M-0.26 36.88 C12.18 23, 21.69 11.63, 31.89 -0.1 M-0.26 36.88 C6.9 28.72, 15.98 19, 31.89 -0.1 M-0.12 48.92 C14.11 29.88, 29.97 16.15, 42.52 -0.14 M-0.12 48.92 C16.8 29.69, 33.29 10.72, 42.52 -0.14 M0.01 60.96 C15.85 38.08, 34.4 20, 53.15 -0.17 M0.01 60.96 C12.28 45.62, 27.01 31.5, 53.15 -0.17 M1.45 71.49 C18.16 54, 35.42 33.88, 63.78 -0.21 M1.45 71.49 C25.16 45.63, 47.43 19.87, 63.78 -0.21 M12.09 71.46 C37.28 42.96, 60.74 15.98, 74.41 -0.24 M12.09 71.46 C25.24 57.89, 37.28 42.07, 74.41 -0.24 M22.72 71.42 C37.7 51.54, 54.71 34.15, 85.04 -0.28 M22.72 71.42 C37.83 53.76, 54.83 36.16, 85.04 -0.28 M33.35 71.39 C55.62 45.78, 78.76 21.03, 95.67 -0.31 M33.35 71.39 C45.81 56.83, 58.46 42.05, 95.67 -0.31 M43.98 71.35 C60.3 54.38, 75.03 35.68, 106.3 -0.34 M43.98 71.35 C62.35 51.02, 81.1 29.53, 106.3 -0.34 M54.61 71.32 C75.31 48.93, 92.86 27.07, 116.27 0.38 M54.61 71.32 C66.73 56.25, 79.98 41.37, 116.27 0.38 M65.24 71.28 C88.73 46.28, 112.38 18.54, 126.91 0.34 M65.24 71.28 C80.56 51.81, 96.33 35, 126.91 0.34 M75.87 71.25 C93.89 48.22, 114.99 25.66, 137.54 0.31 M75.87 71.25 C94.78 49.69, 113.76 28.02, 137.54 0.31 M86.5 71.21 C105.52 53.28, 120.2 31.8, 148.17 0.27 M86.5 71.21 C105.86 48.57, 124.51 27.39, 148.17 0.27 M97.13 71.18 C115.11 50.79, 129.5 30.84, 158.8 0.24 M97.13 71.18 C112.79 51.74, 130.73 31.33, 158.8 0.24 M107.76 71.15 C122.55 54.59, 133.84 39.46, 169.43 0.2 M107.76 71.15 C129.57 47.65, 151.46 22.33, 169.43 0.2 M118.39 71.11 C137.94 50.38, 153.45 28.16, 180.06 0.17 M118.39 71.11 C131.35 56.29, 146.3 39.88, 180.06 0.17 M129.02 71.08 C142.51 56.89, 157.22 41.87, 190.69 0.13 M129.02 71.08 C143.7 54.72, 158.85 37.51, 190.69 0.13 M139.65 71.04 C157.32 51.51, 176.05 31.44, 193.44 9.16 M139.65 71.04 C157.51 48.86, 175.78 28.31, 193.44 9.16 M150.28 71.01 C159.89 58.99, 169.54 48.48, 192.92 21.95 M150.28 71.01 C166.9 51.41, 183.5 32.42, 192.92 21.95 M160.91 70.97 C170.68 57.78, 183.09 47.58, 193.05 33.99 M160.91 70.97 C171.2 57.54, 182.8 46.41, 193.05 33.99 M171.54 70.94 C174.57 66.87, 182.49 60.3, 193.19 46.03 M171.54 70.94 C180.59 60.6, 188.19 51.95, 193.19 46.03 M181.51 71.66 C184.01 68.58, 186.29 63.99, 193.32 58.07 M181.51 71.66 C183.92 67.31, 187.47 65.45, 193.32 58.07 M192.14 71.62 C192.66 71.24, 193 70.5, 193.45 70.11 M192.14 71.62 C192.65 70.98, 193.08 70.6, 193.45 70.11 M0.29 71.3 C0.29 71.3, 0.29 71.3, 0.29 71.3 M0.29 71.3 C0.29 71.3, 0.29 71.3, 0.29 71.3 M12.33 71.17 C7.15 66.67, 3.2 62.4, 0.26 60.67 M12.33 71.17 C8.34 67.55, 4.73 65.57, 0.26 60.67 M24.38 71.04 C17.76 65.67, 13.05 58.54, 0.22 50.04 M24.38 71.04 C18.16 65.47, 11.29 58.06, 0.22 50.04 M36.42 70.9 C22.93 60.29, 7.38 44.29, 0.19 39.41 M36.42 70.9 C24.38 60.3, 10.92 48.09, 0.19 39.41 M48.46 70.77 C29.92 54.37, 10.34 37.09, 0.16 28.78 M48.46 70.77 C32.33 56.65, 14.9 42.08, 0.16 28.78 M61.25 71.29 C44.36 55.85, 31.19 44.45, 0.12 18.15 M61.25 71.29 C44.22 55.1, 26.35 39.27, 0.12 18.15 M73.29 71.16 C56.12 57.37, 38.86 42.67, 0.09 7.52 M73.29 71.16 C56.05 55.8, 40.16 42.4, 0.09 7.52 M85.33 71.03 C65.61 53.77, 45.76 39.31, 3.07 -0.48 M85.33 71.03 C58.14 45.59, 29.86 21.01, 3.07 -0.48 M97.38 70.89 C75.1 48.77, 48.93 28.75, 15.87 0.04 M97.38 70.89 C77.58 52.85, 54.86 33.09, 15.87 0.04 M109.42 70.76 C79.07 46.04, 46.99 16.88, 27.91 -0.09 M109.42 70.76 C93.36 57.11, 77.19 43, 27.91 -0.09 M122.21 71.28 C101.07 53.71, 78.22 32.67, 39.95 -0.23 M122.21 71.28 C103.5 55.52, 85.94 40.55, 39.95 -0.23 M134.25 71.15 C103.53 42.97, 73.69 18.95, 51.99 -0.36 M134.25 71.15 C116.98 55.66, 100.96 41.53, 51.99 -0.36 M146.29 71.02 C116.24 41.96, 81.81 16.42, 64.03 -0.49 M146.29 71.02 C124.66 52.99, 102.48 32.84, 64.03 -0.49 M158.33 70.88 C134.36 49.49, 112.19 29.75, 76.83 0.03 M158.33 70.88 C127.75 43.11, 95.66 15.99, 76.83 0.03 M170.38 70.75 C148.43 53.16, 127.54 34.49, 88.87 -0.1 M170.38 70.75 C153.07 54.52, 135.02 39.68, 88.87 -0.1 M183.17 71.27 C163.32 53.61, 143.45 37.67, 100.91 -0.24 M183.17 71.27 C163.85 54.17, 144.89 37.23, 100.91 -0.24 M192.95 69.17 C171.54 52.43, 152.12 35.22, 112.95 -0.37 M192.95 69.17 C172.79 50.99, 151.6 32.72, 112.95 -0.37 M192.91 58.54 C170.08 40.13, 150.91 23.3, 124.99 -0.5 M192.91 58.54 C171.55 38.8, 148.61 17.73, 124.99 -0.5 M192.88 47.91 C179.28 35.91, 163.4 22.29, 137.78 0.02 M192.88 47.91 C178.68 36.5, 165.22 25.8, 137.78 0.02 M192.84 37.28 C181.66 29.92, 172.35 21.85, 149.83 -0.11 M192.84 37.28 C181.06 27.03, 171.19 18.31, 149.83 -0.11 M193.56 27.31 C180.22 18.84, 168.71 7.31, 161.87 -0.25 M193.56 27.31 C181.63 16.39, 168.56 4.98, 161.87 -0.25 M193.53 16.68 C188.81 11.42, 181.18 6.87, 173.91 -0.38 M193.53 16.68 C187.33 11.17, 179.92 3.62, 173.91 -0.38 M193.5 6.05 C192.05 4.89, 189.44 2.85, 185.95 -0.51 M193.5 6.05 C191.97 5.09, 190.32 3.21, 185.95 -0.51" stroke="#b2f2bb" stroke-width="1" fill="none"></path><path d="M0 0 C51.59 -0.88, 104.87 -2.03, 192.9 0 M0 0 C50.4 1.01, 100.14 1.06, 192.9 0 M192.9 0 C194.32 15.12, 194.77 34.22, 192.9 71.05 M192.9 0 C191.87 21.66, 192.41 41.67, 192.9 71.05 M192.9 71.05 C129.56 72.03, 68.4 73.45, 0 71.05 M192.9 71.05 C129.8 71.89, 67.09 72.97, 0 71.05 M0 71.05 C-0.28 50.43, -1.86 29.12, 0 0 M0 71.05 C-0.41 43.29, 0.48 17.29, 0 0" stroke="#1e1e1e" stroke-width="2" fill="none"></path></g><g transform="translate(1214.2720976844466 372.4063720703125) rotate(0 69.95269012451172 10.730448717948718)"><text x="0" y="0" font-family="Virgil, Segoe UI Emoji" font-size="17.168717948717934px" fill="#1e1e1e" text-anchor="start" style="white-space: pre;" direction="ltr" dominant-baseline="text-before-edge">return user files</text></g><g stroke-linecap="round"><g transform="translate(1104.1900664344466 382.7930908203125) rotate(0 33.35546875 -0.595703125)"><path d="M0.3 2.07 C14.24 2.07, 25.46 -0.87, 68.39 0.61 M-1.54 0.05 C25.51 -0.77, 48.09 0.39, 68.1 0.28" stroke="#1e1e1e" stroke-width="2" fill="none"></path></g><g transform="translate(1104.1900664344466 382.7930908203125) rotate(0 33.35546875 -0.595703125)"><path d="M44.68 9.67 C49.71 8.12, 53.36 5.1, 68.93 1.18 M43.77 8.66 C53.71 5.31, 61.43 3.06, 68.79 1.01" stroke="#1e1e1e" stroke-width="2" fill="none"></path></g><g transform="translate(1104.1900664344466 382.7930908203125) rotate(0 33.35546875 -0.595703125)"><path d="M44.83 -7.43 C49.78 -5.55, 53.4 -5.15, 68.93 1.18 M43.91 -8.44 C53.82 -5.56, 61.48 -1.57, 68.79 1.01" stroke="#1e1e1e" stroke-width="2" fill="none"></path></g></g><mask></mask><g stroke-linecap="round" transform="translate(808.3541289344465 55.4981689453125) rotate(0 833.369140625 352.01953124999994)"><path d="M32 0 C464.92 7, 896.97 6.43, 1634.74 0 M32 0 C645.26 7.81, 1259.89 7.34, 1634.74 0 M1634.74 0 C1659.5 0.74, 1664.56 11.18, 1666.74 32 M1634.74 0 C1656.78 -3.82, 1667.24 7.38, 1666.74 32 M1666.74 32 C1664.64 227.86, 1664.41 421.95, 1666.74 672.04 M1666.74 32 C1668.14 198.32, 1667.41 366.23, 1666.74 672.04 M1666.74 672.04 C1669.73 694.66, 1652.42 700.45, 1634.74 704.04 M1666.74 672.04 C1669.82 695.61, 1657.44 699.63, 1634.74 704.04 M1634.74 704.04 C1215 704.35, 793.55 703.51, 32 704.04 M1634.74 704.04 C1241.28 713.07, 848.46 713.9, 32 704.04 M32 704.04 C7.63 702.37, -0.4 689.97, 0 672.04 M32 704.04 C13.12 700.9, 3.16 691.73, 0 672.04 M0 672.04 C-2.08 543.09, -0.22 412.88, 0 32 M0 672.04 C-2.77 509.51, -3.35 349.23, 0 32 M0 32 C2.6 7.72, 14.11 1.1, 32 0 M0 32 C1.84 9.92, 9.05 -0.43, 32 0" stroke="#2f9e44" stroke-width="2" fill="none"></path></g><g transform="translate(1588.1285429969466 19.8399658203125) rotate(0 55.52397155761719 17.5)"><text x="0" y="0" font-family="Virgil, Segoe UI Emoji" font-size="28px" fill="#2f9e44" text-anchor="start" style="white-space: pre;" direction="ltr" dominant-baseline="text-before-edge">Backend</text></g><g stroke-linecap="round" transform="translate(1186.8111601844466 487.06787109375) rotate(0 96.44921875 35.5234375)"><path d="M17.76 0 C57.68 1.08, 92.32 -1.86, 175.14 0 M17.76 0 C54.79 1.17, 92.33 0.23, 175.14 0 M175.14 0 C187.98 -0.38, 193.19 6.19, 192.9 17.76 M175.14 0 C187.35 0.56, 191.05 4.05, 192.9 17.76 M192.9 17.76 C191.51 26.75, 194.56 34.92, 192.9 53.29 M192.9 17.76 C191.96 30.32, 192.28 40.77, 192.9 53.29 M192.9 53.29 C194.09 65.43, 188.45 71.68, 175.14 71.05 M192.9 53.29 C190.62 65.14, 186.4 69.51, 175.14 71.05 M175.14 71.05 C141.72 68.82, 106.3 69.67, 17.76 71.05 M175.14 71.05 C131.91 72.58, 89.85 71.19, 17.76 71.05 M17.76 71.05 C4.01 72.91, -0.32 65.64, 0 53.29 M17.76 71.05 C4.69 69.88, 0.07 63.31, 0 53.29 M0 53.29 C1.95 41.2, -0.61 24.46, 0 17.76 M0 53.29 C-0.35 40.81, 0.8 28.42, 0 17.76 M0 17.76 C0.96 6.15, 6.97 -1.31, 17.76 0 M0 17.76 C-2.15 5.88, 3.81 -1.21, 17.76 0" stroke="#1e1e1e" stroke-width="2" fill="none"></path></g><g transform="translate(1227.1627226844466 504.93115234375) rotate(0 58.81587219238281 21.460897435897436)"><text x="0" y="0" font-family="Virgil, Segoe UI Emoji" font-size="17.168717948717934px" fill="#1e1e1e" text-anchor="start" style="white-space: pre;" direction="ltr" dominant-baseline="text-before-edge">download from</text><text x="0" y="21.460897435897415" font-family="Virgil, Segoe UI Emoji" font-size="17.168717948717934px" fill="#1e1e1e" text-anchor="start" style="white-space: pre;" direction="ltr" dominant-baseline="text-before-edge"> dotnpad</text></g><g stroke-linecap="round" transform="translate(1465.6900664344466 486.47412109375) rotate(0 96.44921875 35.5234375)"><path d="M17.76 0 C54.09 -1.01, 93.29 -0.06, 175.14 0 M17.76 0 C57.91 1.7, 98.11 1.09, 175.14 0 M175.14 0 C187.11 0.78, 193.29 7.8, 192.9 17.76 M175.14 0 C186.15 1.43, 192.41 6.73, 192.9 17.76 M192.9 17.76 C193.79 28.52, 193.63 37.23, 192.9 53.29 M192.9 17.76 C193.07 28.07, 193.25 37.56, 192.9 53.29 M192.9 53.29 C194.06 65.68, 186.66 72.89, 175.14 71.05 M192.9 53.29 C191.77 66.6, 187.18 73.28, 175.14 71.05 M175.14 71.05 C123.34 70.33, 68.8 70.52, 17.76 71.05 M175.14 71.05 C136.39 70.75, 98.87 70.54, 17.76 71.05 M17.76 71.05 C7.45 71.62, -1.99 66.12, 0 53.29 M17.76 71.05 C4.77 70.03, -0.1 62.89, 0 53.29 M0 53.29 C-0.89 42.79, 1.05 35.22, 0 17.76 M0 53.29 C-0.06 42.12, -0.33 31.32, 0 17.76 M0 17.76 C-0.87 4.62, 3.96 -1.83, 17.76 0 M0 17.76 C-1.52 5.34, 7.2 -1.57, 17.76 0" stroke="#1e1e1e" stroke-width="2" fill="none"></path></g><g transform="translate(1520.7330351844466 512.92333984375) rotate(0 41.63014221191406 10.730448717948718)"><text x="0" y="0" font-family="Virgil, Segoe UI Emoji" font-size="17.168717948717934px" fill="#1e1e1e" text-anchor="start" style="white-space: pre;" direction="ltr" dominant-baseline="text-before-edge">check md5</text></g><g stroke-linecap="round" transform="translate(894.7760039344465 490.76318359375) rotate(0 96.44921875 35.5234375)"><path d="M17.76 0 C71.45 -2.08, 125.73 -2.06, 175.14 0 M17.76 0 C69.55 -2, 123.49 -1.02, 175.14 0 M175.14 0 C186.33 1.97, 192.21 5.78, 192.9 17.76 M175.14 0 C187.38 0.95, 194.78 4.37, 192.9 17.76 M192.9 17.76 C194.34 25.05, 193.63 31.98, 192.9 53.29 M192.9 17.76 C192.95 26.16, 193.18 33.83, 192.9 53.29 M192.9 53.29 C191.4 64.27, 188.35 71.81, 175.14 71.05 M192.9 53.29 C193.65 63.47, 185.26 70.3, 175.14 71.05 M175.14 71.05 C120.02 70.88, 61.88 69.08, 17.76 71.05 M175.14 71.05 C116.14 71.28, 58.18 71.73, 17.76 71.05 M17.76 71.05 C3.98 71.09, 0.93 66.93, 0 53.29 M17.76 71.05 C4.16 70.23, -1.6 63.45, 0 53.29 M0 53.29 C-0.42 41.61, -0.04 32.55, 0 17.76 M0 53.29 C-0.72 42.16, 0.94 30.87, 0 17.76 M0 17.76 C-1.71 5.95, 4.89 -0.56, 17.76 0 M0 17.76 C0.48 4.3, 7.27 -1.2, 17.76 0" stroke="#1e1e1e" stroke-width="2" fill="none"></path></g><g transform="translate(949.8189726844465 517.21240234375) rotate(0 37.142791748046875 10.730448717948718)"><text x="0" y="0" font-family="Virgil, Segoe UI Emoji" font-size="17.168717948717934px" fill="#1e1e1e" text-anchor="start" style="white-space: pre;" direction="ltr" dominant-baseline="text-before-edge">find user</text></g><g stroke-linecap="round" transform="translate(1733.9830351844466 488.94677734375) rotate(0 96.44921875 35.5234375)"><path d="M17.76 0 C78.51 -0.28, 136.56 -0.1, 175.14 0 M17.76 0 C77.55 -0.05, 138.4 0.4, 175.14 0 M175.14 0 C188.13 -0.89, 193.64 5.74, 192.9 17.76 M175.14 0 C185.98 -1.21, 193.57 4.29, 192.9 17.76 M192.9 17.76 C191.52 32.48, 193.37 45.02, 192.9 53.29 M192.9 17.76 C193.96 25.23, 192.3 32.37, 192.9 53.29 M192.9 53.29 C191.08 66.74, 185.05 71.3, 175.14 71.05 M192.9 53.29 C191.48 65.84, 187.3 71.66, 175.14 71.05 M175.14 71.05 C132.49 70.89, 88.28 71.21, 17.76 71.05 M175.14 71.05 C129.67 70.05, 85.32 69.36, 17.76 71.05 M17.76 71.05 C4.93 71.23, -0.49 63.96, 0 53.29 M17.76 71.05 C6.87 72.97, -1.27 66.38, 0 53.29 M0 53.29 C0.93 39.02, 1.22 27.27, 0 17.76 M0 53.29 C1.04 45.42, -0.03 35.68, 0 17.76 M0 17.76 C-0.28 5.63, 5.31 -0.07, 17.76 0 M0 17.76 C2.25 4.67, 7.59 0.45, 17.76 0" stroke="#1e1e1e" stroke-width="2" fill="none"></path></g><g transform="translate(1789.0260039344466 515.39599609375) rotate(0 30.673484802246094 10.730448717948718)"><text x="0" y="0" font-family="Virgil, Segoe UI Emoji" font-size="17.168717948717934px" fill="#1e1e1e" text-anchor="start" style="white-space: pre;" direction="ltr" dominant-baseline="text-before-edge">decrypt</text></g><g stroke-linecap="round" transform="translate(1998.5338164344466 490.99365234375) rotate(0 96.44921875 35.5234375)"><path d="M17.76 0 C60.81 2.21, 104.76 0.22, 175.14 0 M17.76 0 C53.05 0.86, 86.65 1.18, 175.14 0 M175.14 0 C186.21 1.89, 192.21 7.09, 192.9 17.76 M175.14 0 C186.76 -1.27, 191.52 7.04, 192.9 17.76 M192.9 17.76 C192.67 31.12, 190.96 41.22, 192.9 53.29 M192.9 17.76 C193.9 30.91, 192.2 41.78, 192.9 53.29 M192.9 53.29 C194.77 64.84, 187.51 69.69, 175.14 71.05 M192.9 53.29 C191.95 64.28, 186.6 71.83, 175.14 71.05 M175.14 71.05 C125.61 71.28, 72.51 69.42, 17.76 71.05 M175.14 71.05 C120.47 71.22, 67.07 72.02, 17.76 71.05 M17.76 71.05 C5.7 71.09, -0.72 63.82, 0 53.29 M17.76 71.05 C6.1 71.9, 1.06 63.66, 0 53.29 M0 53.29 C-1.56 41.34, -1.42 28.11, 0 17.76 M0 53.29 C0.5 41.95, 0.98 29.8, 0 17.76 M0 17.76 C1.51 5.5, 5.05 1.73, 17.76 0 M0 17.76 C0.37 5.42, 4.79 1.39, 17.76 0" stroke="#1e1e1e" stroke-width="2" fill="none"></path></g><g transform="translate(2030.8580351844466 517.34521484375) rotate(0 62.91710662841797 10.730448717948718)"><text x="0" y="0" font-family="Virgil, Segoe UI Emoji" font-size="17.168717948717934px" fill="#1e1e1e" text-anchor="start" style="white-space: pre;" direction="ltr" dominant-baseline="text-before-edge">decode base64</text></g><g stroke-linecap="round" transform="translate(2258.6822539344466 493.8330078125) rotate(0 96.44921875 35.5234375)"><path d="M0 0 C0 0, 0 0, 0 0 M0 0 C0 0, 0 0, 0 0 M0.13 12.04 C1.31 8.88, 5.58 6.72, 10.63 -0.03 M0.13 12.04 C2.81 9.17, 5.18 5.92, 10.63 -0.03 M0.27 24.08 C6.01 16.56, 9.38 14.7, 21.26 -0.07 M0.27 24.08 C6.18 16.31, 13.78 9.1, 21.26 -0.07 M-0.26 36.88 C9.27 25.72, 18.64 13.39, 31.89 -0.1 M-0.26 36.88 C10.42 24.16, 21.7 11.83, 31.89 -0.1 M-0.12 48.92 C8.57 36.7, 17.95 27.36, 42.52 -0.14 M-0.12 48.92 C12.99 33.67, 25.22 21.32, 42.52 -0.14 M0.01 60.96 C10.51 46.35, 25.36 32.82, 53.15 -0.17 M0.01 60.96 C14.3 44.24, 27.78 28.4, 53.15 -0.17 M0.8 72.25 C21.71 47.65, 44.56 20.41, 63.78 -0.21 M0.8 72.25 C20.61 50.36, 39.79 28.55, 63.78 -0.21 M11.43 72.21 C21.89 55.51, 37.63 41.29, 74.41 -0.24 M11.43 72.21 C31.69 48.59, 52.58 24.02, 74.41 -0.24 M22.06 72.18 C37.89 53.59, 56.68 33.97, 85.04 -0.28 M22.06 72.18 C35.51 58.26, 49.36 42.13, 85.04 -0.28 M32.69 72.14 C49.39 50.51, 67.21 32.33, 95.67 -0.31 M32.69 72.14 C45.73 56.9, 59.15 41.72, 95.67 -0.31 M43.32 72.11 C60.83 52.13, 77.28 29.39, 106.3 -0.34 M43.32 72.11 C58.96 54.96, 72.96 39.29, 106.3 -0.34 M53.95 72.07 C78.49 45.45, 98.89 20.09, 116.27 0.38 M53.95 72.07 C68.61 55.45, 85.08 37.46, 116.27 0.38 M64.58 72.04 C88.02 47.21, 109.33 24.35, 126.91 0.34 M64.58 72.04 C85.84 48.72, 107.32 23.57, 126.91 0.34 M75.21 72 C96.32 48.26, 114.56 29.66, 137.54 0.31 M75.21 72 C95.89 48.99, 115.83 23.7, 137.54 0.31 M85.84 71.97 C102.89 48.72, 124.28 28.74, 148.17 0.27 M85.84 71.97 C102.49 53.48, 119.71 32.84, 148.17 0.27 M96.47 71.93 C113.16 53.75, 130.33 35.54, 158.8 0.24 M96.47 71.93 C109.51 55.62, 124.49 40.36, 158.8 0.24 M107.1 71.9 C121.9 52.08, 138.52 32.04, 169.43 0.2 M107.1 71.9 C126.39 48.56, 146.19 25.96, 169.43 0.2 M117.73 71.87 C136.35 46.88, 156.49 25.52, 180.06 0.17 M117.73 71.87 C129.86 55.18, 144.04 40.42, 180.06 0.17 M128.36 71.83 C142.68 57.73, 155.66 39.46, 190.69 0.13 M128.36 71.83 C148.14 48.29, 170.17 24.24, 190.69 0.13 M138.99 71.8 C155.11 53.01, 170.62 37.62, 198.04 3.87 M138.99 71.8 C156 52.68, 172.36 33.16, 198.04 3.87 M149.62 71.76 C168.2 53.05, 183.84 30.77, 197.51 16.67 M149.62 71.76 C163.97 54.44, 179.31 37.51, 197.51 16.67 M160.25 71.73 C168.91 61.8, 176.66 54.91, 197.65 28.71 M160.25 71.73 C173.93 56.84, 187.08 41.91, 197.65 28.71 M170.88 71.69 C177.15 61.57, 187.3 54.07, 197.78 40.75 M170.88 71.69 C177.48 64.37, 183.19 57.12, 197.78 40.75 M181.51 71.66 C187.35 63.55, 194.02 59.39, 197.91 52.79 M181.51 71.66 C184.9 67.02, 187.05 64.94, 197.91 52.79 M192.14 71.62 C194.12 70.46, 194.66 67.23, 198.05 64.83 M192.14 71.62 C193.5 70.3, 194.74 68.89, 198.05 64.83 M0.29 71.3 C0.29 71.3, 0.29 71.3, 0.29 71.3 M0.29 71.3 C0.29 71.3, 0.29 71.3, 0.29 71.3 M12.33 71.17 C10.52 67.52, 6.11 66.44, 0.26 60.67 M12.33 71.17 C9.06 69.39, 6.58 66.8, 0.26 60.67 M24.38 71.04 C13.86 64.44, 6.1 54.53, 0.22 50.04 M24.38 71.04 C16.94 64.36, 7.38 58.12, 0.22 50.04 M36.42 70.9 C21.87 57.81, 7.85 45.48, 0.19 39.41 M36.42 70.9 C23.13 59.18, 9.35 48.24, 0.19 39.41 M48.46 70.77 C32.9 54.73, 13.46 38.83, 0.16 28.78 M48.46 70.77 C36.56 60.05, 25.65 49.53, 0.16 28.78 M61.25 71.29 C48.18 61.51, 34.99 49.61, 0.12 18.15 M61.25 71.29 C46.84 59.23, 32.7 47.45, 0.12 18.15 M73.29 71.16 C50.43 51.42, 24.9 28.54, 0.09 7.52 M73.29 71.16 C51.82 51.95, 30.88 34.55, 0.09 7.52 M85.33 71.03 C64.46 54.04, 48 40.62, 1.56 -1.8 M85.33 71.03 C53.36 41.7, 19.09 13.89, 1.56 -1.8 M97.38 70.89 C67.13 45.66, 37.55 20.32, 13.6 -1.93 M97.38 70.89 C81.68 55.77, 64.52 39.73, 13.6 -1.93 M109.42 70.76 C88.17 54.95, 71.44 35.67, 25.64 -2.06 M109.42 70.76 C92.02 56.49, 73.96 41.85, 25.64 -2.06 M122.21 71.28 C92.82 44.75, 62.62 20.92, 38.44 -1.54 M122.21 71.28 C90.03 42.05, 56.51 13.75, 38.44 -1.54 M134.25 71.15 C106.18 43.73, 73.56 19.05, 50.48 -1.67 M134.25 71.15 C101.06 41.06, 67.58 11.97, 50.48 -1.67 M146.29 71.02 C118.67 48.4, 91.67 23.76, 62.52 -1.81 M146.29 71.02 C129.83 55.69, 112.22 42.18, 62.52 -1.81 M158.33 70.88 C140.91 56.4, 125.14 43.12, 74.56 -1.94 M158.33 70.88 C138.88 53.85, 117.26 36.82, 74.56 -1.94 M170.38 70.75 C148.76 51.23, 124.94 30.6, 86.6 -2.07 M170.38 70.75 C147.31 49.56, 122.65 29.45, 86.6 -2.07 M183.17 71.27 C156.53 50.67, 131.83 26.43, 99.4 -1.55 M183.17 71.27 C164.63 56, 148.59 41.56, 99.4 -1.55 M193.7 69.83 C167.77 45.42, 143.72 24.35, 111.44 -1.68 M193.7 69.83 C173.83 52.6, 156.32 36.05, 111.44 -1.68 M193.67 59.2 C173.73 39.22, 151.63 22.57, 123.48 -1.82 M193.67 59.2 C173.54 40.41, 153.15 24.2, 123.48 -1.82 M193.63 48.57 C171.77 28.97, 146.05 9.86, 135.52 -1.95 M193.63 48.57 C176.24 33.13, 159.34 17.39, 135.52 -1.95 M193.6 37.94 C177.09 24.97, 161.31 9.72, 147.56 -2.08 M193.6 37.94 C178.57 24.15, 164.99 13.2, 147.56 -2.08 M193.56 27.31 C181.4 18.93, 170.72 6.95, 160.36 -1.56 M193.56 27.31 C182.67 17.24, 171.11 6.51, 160.36 -1.56 M193.53 16.68 C187.25 12.47, 181.94 4.48, 172.4 -1.69 M193.53 16.68 C186 8.51, 175.89 1.92, 172.4 -1.69 M193.5 6.05 C190.6 4.05, 185.37 -1.17, 184.44 -1.83 M193.5 6.05 C190.59 4.48, 188.52 1.37, 184.44 -1.83" stroke="#b2f2bb" stroke-width="1" fill="none"></path><path d="M0 0 C73.55 -2.34, 145.23 0.64, 192.9 0 M0 0 C54.24 -1.14, 106.8 -0.88, 192.9 0 M192.9 0 C195.1 28.77, 193.99 56.57, 192.9 71.05 M192.9 0 C191.82 26.2, 191.76 52.34, 192.9 71.05 M192.9 71.05 C150.14 68.17, 109.54 69.72, 0 71.05 M192.9 71.05 C153.54 69.4, 115.56 69.43, 0 71.05 M0 71.05 C-0.81 53.84, -1.3 39.9, 0 0 M0 71.05 C-0.29 43.81, 0.69 15.6, 0 0" stroke="#1e1e1e" stroke-width="2" fill="none"></path></g><g transform="translate(2319.2760039344466 517.0205078125) rotate(0 43.08872985839844 10.730448717948718)"><text x="0" y="0" font-family="Virgil, Segoe UI Emoji" font-size="17.168717948717934px" fill="#1e1e1e" text-anchor="start" style="white-space: pre;" direction="ltr" dominant-baseline="text-before-edge">return file</text></g><g stroke-linecap="round"><g transform="translate(1095.4127226844466 522.6103515625) rotate(0 38.513671875 1.806640625)"><path d="M-0.11 2.3 C12.66 3.1, 62.26 4.2, 75.01 4.21 M-3.62 1.09 C10.19 1.03, 67.34 -1.1, 80.32 -0.47" stroke="#1e1e1e" stroke-width="2" fill="none"></path></g><g transform="translate(1095.4127226844466 522.6103515625) rotate(0 38.513671875 1.806640625)"><path d="M58.49 6.69 C62.95 5.62, 67.31 2.89, 80.45 1.02 M57.12 7.39 C61.12 6.56, 66.86 4.94, 80.82 -0.87" stroke="#1e1e1e" stroke-width="2" fill="none"></path></g><g transform="translate(1095.4127226844466 522.6103515625) rotate(0 38.513671875 1.806640625)"><path d="M58.45 -10.41 C62.88 -7.36, 67.25 -5.97, 80.45 1.02 M57.08 -9.71 C61.15 -6.83, 66.9 -4.73, 80.82 -0.87" stroke="#1e1e1e" stroke-width="2" fill="none"></path></g></g><mask></mask><g stroke-linecap="round"><g transform="translate(1385.0220976844466 524.2158203125) rotate(0 34.072265625 -0.1015625)"><path d="M-1.3 2.26 C9.5 2.6, 55.98 2.49, 67.27 2.34 M3.18 1.02 C13.31 0.61, 53.02 -0.57, 64.56 -1.29" stroke="#1e1e1e" stroke-width="2" fill="none"></path></g><g transform="translate(1385.0220976844466 524.2158203125) rotate(0 34.072265625 -0.1015625)"><path d="M43.09 7.68 C52.23 3.5, 60.49 -0.83, 63.81 -0.88 M41.83 9.07 C46.32 5.23, 52.25 2.89, 64.95 -0.71" stroke="#1e1e1e" stroke-width="2" fill="none"></path></g><g transform="translate(1385.0220976844466 524.2158203125) rotate(0 34.072265625 -0.1015625)"><path d="M42.32 -9.4 C51.78 -6.96, 60.34 -4.66, 63.81 -0.88 M41.06 -8.01 C45.88 -7.64, 52 -5.76, 64.95 -0.71" stroke="#1e1e1e" stroke-width="2" fill="none"></path></g></g><mask></mask><g stroke-linecap="round"><g transform="translate(1667.7330351844466 520.6611328125) rotate(0 28.62109375 1.671875)"><path d="M-1.3 2.78 C8.11 2.94, 46.01 0.38, 55.91 0.6 M3.2 1.82 C12.16 2.24, 44.02 1.78, 52.95 2.74" stroke="#1e1e1e" stroke-width="2" fill="none"></path></g><g transform="translate(1667.7330351844466 520.6611328125) rotate(0 28.62109375 1.671875)"><path d="M31.11 9.35 C33.87 8.91, 43.05 5.84, 52.57 3.38 M29.38 10.21 C37.77 7.52, 44.34 6.25, 53.09 2.73" stroke="#1e1e1e" stroke-width="2" fill="none"></path></g><g transform="translate(1667.7330351844466 520.6611328125) rotate(0 28.62109375 1.671875)"><path d="M31.82 -7.73 C34.36 -3.38, 43.34 -1.64, 52.57 3.38 M30.1 -6.87 C38.26 -4.08, 44.6 0.13, 53.09 2.73" stroke="#1e1e1e" stroke-width="2" fill="none"></path></g></g><mask></mask><g stroke-linecap="round"><g transform="translate(1937.6119414344466 530.1376953125) rotate(0 28.486328125 -1.599609375)"><path d="M-0.27 -1.11 C9.83 -1.59, 48.67 -4.6, 58.64 -4.76 M-3.87 -4.18 C6.19 -4.15, 46.8 -1.51, 57.31 -1.97" stroke="#1e1e1e" stroke-width="2" fill="none"></path></g><g transform="translate(1937.6119414344466 530.1376953125) rotate(0 28.486328125 -1.599609375)"><path d="M32.88 7.37 C38.03 6.18, 45.38 0.99, 58.88 -1.06 M33.86 6.93 C41.44 3.83, 50.25 1.07, 56.79 -1.81" stroke="#1e1e1e" stroke-width="2" fill="none"></path></g><g transform="translate(1937.6119414344466 530.1376953125) rotate(0 28.486328125 -1.599609375)"><path d="M33.17 -9.73 C38.14 -7, 45.43 -8.27, 58.88 -1.06 M34.15 -10.17 C41.71 -7.42, 50.43 -4.34, 56.79 -1.81" stroke="#1e1e1e" stroke-width="2" fill="none"></path></g></g><mask></mask><g stroke-linecap="round"><g transform="translate(2199.8033476844466 534.4541015625) rotate(0 24.32421875 -0.068359375)"><path d="M-0.71 0.75 C7.73 0.66, 41.32 0.42, 49.65 0.27 M1.12 0.09 C9.58 -0.44, 41.27 -1.82, 49.23 -1.64" stroke="#1e1e1e" stroke-width="2" fill="none"></path></g><g transform="translate(2199.8033476844466 534.4541015625) rotate(0 24.32421875 -0.068359375)"><path d="M27.75 8.71 C32.04 6.38, 36.23 5.32, 47.39 -2.37 M26.55 6.23 C33.15 4.57, 41.86 1.79, 49.39 -0.74" stroke="#1e1e1e" stroke-width="2" fill="none"></path></g><g transform="translate(2199.8033476844466 534.4541015625) rotate(0 24.32421875 -0.068359375)"><path d="M27.48 -7.92 C31.94 -6.65, 36.19 -4.12, 47.39 -2.37 M26.28 -10.41 C33 -6.69, 41.79 -4.09, 49.39 -0.74" stroke="#1e1e1e" stroke-width="2" fill="none"></path></g></g><mask></mask><g transform="translate(77.52350739565202 37.726058293731114) rotate(0 317.671875 337.3469252566887)"><text x="0" y="0" font-family="Cascadia, Segoe UI Emoji" font-size="20.080174122421944px" fill="#1e1e1e" text-anchor="start" style="white-space: pre;" direction="ltr" dominant-baseline="text-before-edge"></text><text x="0" y="24.096208946906334" font-family="Cascadia, Segoe UI Emoji" font-size="20.080174122421944px" fill="#1e1e1e" text-anchor="start" style="white-space: pre;" direction="ltr" dominant-baseline="text-before-edge"></text><text x="0" y="48.19241789381267" font-family="Cascadia, Segoe UI Emoji" font-size="20.080174122421944px" fill="#1e1e1e" text-anchor="start" style="white-space: pre;" direction="ltr" dominant-baseline="text-before-edge"></text><text x="0" y="72.288626840719" font-family="Cascadia, Segoe UI Emoji" font-size="20.080174122421944px" fill="#1e1e1e" text-anchor="start" style="white-space: pre;" direction="ltr" dominant-baseline="text-before-edge">// upload new file</text><text x="0" y="96.38483578762533" font-family="Cascadia, Segoe UI Emoji" font-size="20.080174122421944px" fill="#1e1e1e" text-anchor="start" style="white-space: pre;" direction="ltr" dominant-baseline="text-before-edge">PUT /files</text><text x="0" y="120.48104473453166" font-family="Cascadia, Segoe UI Emoji" font-size="20.080174122421944px" fill="#1e1e1e" text-anchor="start" style="white-space: pre;" direction="ltr" dominant-baseline="text-before-edge"></text><text x="0" y="144.577253681438" font-family="Cascadia, Segoe UI Emoji" font-size="20.080174122421944px" fill="#1e1e1e" text-anchor="start" style="white-space: pre;" direction="ltr" dominant-baseline="text-before-edge"></text><text x="0" y="168.67346262834434" font-family="Cascadia, Segoe UI Emoji" font-size="20.080174122421944px" fill="#1e1e1e" text-anchor="start" style="white-space: pre;" direction="ltr" dominant-baseline="text-before-edge">// get all user files</text><text x="0" y="192.76967157525067" font-family="Cascadia, Segoe UI Emoji" font-size="20.080174122421944px" fill="#1e1e1e" text-anchor="start" style="white-space: pre;" direction="ltr" dominant-baseline="text-before-edge">GET /files</text><text x="0" y="216.865880522157" font-family="Cascadia, Segoe UI Emoji" font-size="20.080174122421944px" fill="#1e1e1e" text-anchor="start" style="white-space: pre;" direction="ltr" dominant-baseline="text-before-edge"></text><text x="0" y="240.96208946906333" font-family="Cascadia, Segoe UI Emoji" font-size="20.080174122421944px" fill="#1e1e1e" text-anchor="start" style="white-space: pre;" direction="ltr" dominant-baseline="text-before-edge">[</text><text x="0" y="265.05829841596966" font-family="Cascadia, Segoe UI Emoji" font-size="20.080174122421944px" fill="#1e1e1e" text-anchor="start" style="white-space: pre;" direction="ltr" dominant-baseline="text-before-edge">    {</text><text x="0" y="289.154507362876" font-family="Cascadia, Segoe UI Emoji" font-size="20.080174122421944px" fill="#1e1e1e" text-anchor="start" style="white-space: pre;" direction="ltr" dominant-baseline="text-before-edge">        "name" : "test.txt"</text><text x="0" y="313.2507163097823" font-family="Cascadia, Segoe UI Emoji" font-size="20.080174122421944px" fill="#1e1e1e" text-anchor="start" style="white-space: pre;" direction="ltr" dominant-baseline="text-before-edge">        "id" : "26a4d997-35fa-4601-a2fa-253842221a5b"</text><text x="0" y="337.3469252566887" font-family="Cascadia, Segoe UI Emoji" font-size="20.080174122421944px" fill="#1e1e1e" text-anchor="start" style="white-space: pre;" direction="ltr" dominant-baseline="text-before-edge">        "created_at" : "2009-11-10 23:00:00 +0000 UTC"</text><text x="0" y="361.443134203595" font-family="Cascadia, Segoe UI Emoji" font-size="20.080174122421944px" fill="#1e1e1e" text-anchor="start" style="white-space: pre;" direction="ltr" dominant-baseline="text-before-edge">    }</text><text x="0" y="385.53934315050134" font-family="Cascadia, Segoe UI Emoji" font-size="20.080174122421944px" fill="#1e1e1e" text-anchor="start" style="white-space: pre;" direction="ltr" dominant-baseline="text-before-edge">]</text><text x="0" y="409.6355520974077" font-family="Cascadia, Segoe UI Emoji" font-size="20.080174122421944px" fill="#1e1e1e" text-anchor="start" style="white-space: pre;" direction="ltr" dominant-baseline="text-before-edge"></text><text x="0" y="433.731761044314" font-family="Cascadia, Segoe UI Emoji" font-size="20.080174122421944px" fill="#1e1e1e" text-anchor="start" style="white-space: pre;" direction="ltr" dominant-baseline="text-before-edge"></text><text x="0" y="457.82796999122036" font-family="Cascadia, Segoe UI Emoji" font-size="20.080174122421944px" fill="#1e1e1e" text-anchor="start" style="white-space: pre;" direction="ltr" dominant-baseline="text-before-edge"></text><text x="0" y="481.92417893812666" font-family="Cascadia, Segoe UI Emoji" font-size="20.080174122421944px" fill="#1e1e1e" text-anchor="start" style="white-space: pre;" direction="ltr" dominant-baseline="text-before-edge">// download file</text><text x="0" y="506.020387885033" font-family="Cascadia, Segoe UI Emoji" font-size="20.080174122421944px" fill="#1e1e1e" text-anchor="start" style="white-space: pre;" direction="ltr" dominant-baseline="text-before-edge">GET /files/{id}</text><text x="0" y="530.1165968319393" font-family="Cascadia, Segoe UI Emoji" font-size="20.080174122421944px" fill="#1e1e1e" text-anchor="start" style="white-space: pre;" direction="ltr" dominant-baseline="text-before-edge"></text><text x="0" y="554.2128057788457" font-family="Cascadia, Segoe UI Emoji" font-size="20.080174122421944px" fill="#1e1e1e" text-anchor="start" style="white-space: pre;" direction="ltr" dominant-baseline="text-before-edge"></text><text x="0" y="578.309014725752" font-family="Cascadia, Segoe UI Emoji" font-size="20.080174122421944px" fill="#1e1e1e" text-anchor="start" style="white-space: pre;" direction="ltr" dominant-baseline="text-before-edge"></text><text x="0" y="602.4052236726584" font-family="Cascadia, Segoe UI Emoji" font-size="20.080174122421944px" fill="#1e1e1e" text-anchor="start" style="white-space: pre;" direction="ltr" dominant-baseline="text-before-edge"></text><text x="0" y="626.5014326195646" font-family="Cascadia, Segoe UI Emoji" font-size="20.080174122421944px" fill="#1e1e1e" text-anchor="start" style="white-space: pre;" direction="ltr" dominant-baseline="text-before-edge">// delete file</text><text x="0" y="650.597641566471" font-family="Cascadia, Segoe UI Emoji" font-size="20.080174122421944px" fill="#1e1e1e" text-anchor="start" style="white-space: pre;" direction="ltr" dominant-baseline="text-before-edge">DELETE /files/{id}</text></g><g stroke-linecap="round" transform="translate(10 57.62766299661956) rotate(0 384.93438868597326 349.1812856891902)"><path d="M32 0 C180.27 -6.03, 331.73 -4.37, 737.87 0 M32 0 C248.79 -4.8, 466.31 -4.58, 737.87 0 M737.87 0 C756.85 -0.35, 767.21 11.88, 769.87 32 M737.87 0 C757.49 2.47, 766.69 10.21, 769.87 32 M769.87 32 C764.94 165.1, 765.72 294.65, 769.87 666.36 M769.87 32 C769.87 247.41, 768.92 462.41, 769.87 666.36 M769.87 666.36 C766.15 683.92, 763.13 700.8, 737.87 698.36 M769.87 666.36 C772.13 688.97, 759.45 702.62, 737.87 698.36 M737.87 698.36 C526.61 701.08, 311.92 699.29, 32 698.36 M737.87 698.36 C480.83 703.69, 223.34 703.52, 32 698.36 M32 698.36 C12.79 698.81, 2.99 689.16, 0 666.36 M32 698.36 C13.26 697.92, -3.37 688.96, 0 666.36 M0 666.36 C0.58 521.77, 0.29 380.33, 0 32 M0 666.36 C3.31 487.88, 3.76 310.37, 0 32 M0 32 C-1.62 11.19, 7.6 -1.14, 32 0 M0 32 C-1.36 9.23, 8.58 1.72, 32 0" stroke="#f08c00" stroke-width="2" fill="none"></path></g><g transform="translate(381.89600218792805 10) rotate(0 26.17040252685547 17.5701523571192)"><text x="0" y="0" font-family="Virgil, Segoe UI Emoji" font-size="28.11224377139072px" fill="#f08c00" text-anchor="start" style="white-space: pre;" direction="ltr" dominant-baseline="text-before-edge">API</text></g><g stroke-linecap="round" transform="translate(895.8970976844465 635.0174560546875) rotate(0 96.44921875 35.5234375)"><path d="M17.76 0 C62.29 -0.4, 106.93 1.39, 175.14 0 M17.76 0 C50.72 1.19, 84.04 1.06, 175.14 0 M175.14 0 C185.28 1.18, 192.97 5.64, 192.9 17.76 M175.14 0 C188.82 1.41, 192.5 5.84, 192.9 17.76 M192.9 17.76 C193.94 26.8, 193.2 35.77, 192.9 53.29 M192.9 17.76 C192.83 28.73, 193.52 37.56, 192.9 53.29 M192.9 53.29 C193.85 64.21, 186.3 70.32, 175.14 71.05 M192.9 53.29 C191.16 63.4, 186.76 71.56, 175.14 71.05 M175.14 71.05 C115.76 69.81, 54.42 71.61, 17.76 71.05 M175.14 71.05 C124.36 69.6, 72.58 70.62, 17.76 71.05 M17.76 71.05 C6.11 71.05, 0.31 64.87, 0 53.29 M17.76 71.05 C4.83 72.41, 1.38 64.66, 0 53.29 M0 53.29 C-0.56 46.17, -0.87 33.86, 0 17.76 M0 53.29 C-0.09 40.22, -0.01 25.52, 0 17.76 M0 17.76 C0.1 4.55, 6.41 -1.71, 17.76 0 M0 17.76 C-1.11 4.69, 6.8 -0.47, 17.76 0" stroke="#1e1e1e" stroke-width="2" fill="none"></path></g><g transform="translate(950.9400664344465 661.4666748046875) rotate(0 37.142791748046875 10.730448717948718)"><text x="0" y="0" font-family="Virgil, Segoe UI Emoji" font-size="17.168717948717934px" fill="#1e1e1e" text-anchor="start" style="white-space: pre;" direction="ltr" dominant-baseline="text-before-edge">find user</text></g><g stroke-linecap="round" transform="translate(1187.9556914344466 635.744384765625) rotate(0 96.44921875 35.5234375)"><path d="M17.76 0 C66.01 1.95, 110.26 2.53, 175.14 0 M17.76 0 C52.62 0.74, 88.69 1.49, 175.14 0 M175.14 0 C186.07 0.46, 193.86 5.02, 192.9 17.76 M175.14 0 C186.14 -0.16, 191.79 4.14, 192.9 17.76 M192.9 17.76 C195.02 25.75, 193.37 33.76, 192.9 53.29 M192.9 17.76 C192.66 28.34, 192.77 39.41, 192.9 53.29 M192.9 53.29 C193 66.01, 185.42 69.23, 175.14 71.05 M192.9 53.29 C195.1 64, 184.89 69.81, 175.14 71.05 M175.14 71.05 C136.08 73.37, 99.38 71.23, 17.76 71.05 M175.14 71.05 C117.67 71.25, 59.29 72.25, 17.76 71.05 M17.76 71.05 C7.76 71.48, 1.78 64.38, 0 53.29 M17.76 71.05 C5.72 72.09, 0.6 66.87, 0 53.29 M0 53.29 C0.8 42.84, -0.24 30.31, 0 17.76 M0 53.29 C-0.63 44.07, 0.74 34.78, 0 17.76 M0 17.76 C-1.58 4.46, 4.68 0.8, 17.76 0 M0 17.76 C0.65 8.17, 7.55 1.8, 17.76 0" stroke="#1e1e1e" stroke-width="2" fill="none"></path></g><g transform="translate(1230.1783476844466 653.478759765625) rotate(0 52.68975067138672 21.460897435897436)"><text x="0" y="0" font-family="Virgil, Segoe UI Emoji" font-size="17.168717948717934px" fill="#1e1e1e" text-anchor="start" style="white-space: pre;" direction="ltr" dominant-baseline="text-before-edge">delete from </text><text x="0" y="21.460897435897415" font-family="Virgil, Segoe UI Emoji" font-size="17.168717948717934px" fill="#1e1e1e" text-anchor="start" style="white-space: pre;" direction="ltr" dominant-baseline="text-before-edge">dontpad</text></g><g stroke-linecap="round" transform="translate(1466.5299101844466 636.4193115234375) rotate(0 96.44921875 35.5234375)"><path d="M0 0 C0 0, 0 0, 0 0 M0 0 C0 0, 0 0, 0 0 M0.13 12.04 C2.22 10.87, 5.67 7.6, 10.63 -0.03 M0.13 12.04 C3.51 7.29, 8.52 3.07, 10.63 -0.03 M0.27 24.08 C7.04 17.59, 10 14.49, 21.26 -0.07 M0.27 24.08 C4.33 19.1, 9.56 13.18, 21.26 -0.07 M-0.26 36.88 C9.87 23.73, 19.51 13.26, 31.89 -0.1 M-0.26 36.88 C10.41 22.89, 22.51 9.42, 31.89 -0.1 M-0.12 48.92 C12.88 35.07, 23.44 23.99, 42.52 -0.14 M-0.12 48.92 C16.31 28.89, 33.73 10.83, 42.52 -0.14 M0.01 60.96 C16.23 39.59, 33.73 21.1, 53.15 -0.17 M0.01 60.96 C18.98 38.7, 39.74 17.01, 53.15 -0.17 M1.45 71.49 C21.69 48.93, 38.47 29.4, 63.78 -0.21 M1.45 71.49 C25.26 44.53, 47.65 17.59, 63.78 -0.21 M12.09 71.46 C28.97 53.5, 41.74 36.43, 74.41 -0.24 M12.09 71.46 C36.74 43.49, 62 15.75, 74.41 -0.24 M22.72 71.42 C38.03 51.87, 55.4 31.99, 85.04 -0.28 M22.72 71.42 C42.79 48.12, 62.57 25.23, 85.04 -0.28 M33.35 71.39 C46.78 53.59, 62.36 40.83, 95.67 -0.31 M33.35 71.39 C48.53 53.8, 62.3 36.37, 95.67 -0.31 M43.98 71.35 C64.91 46.11, 88.04 23.38, 106.3 -0.34 M43.98 71.35 C57.5 54.85, 71.25 38.34, 106.3 -0.34 M54.61 71.32 C79.64 43.3, 103.89 16.45, 116.27 0.38 M54.61 71.32 C69.79 55.99, 82.79 39.73, 116.27 0.38 M65.24 71.28 C83.2 50.24, 102.6 29.85, 126.91 0.34 M65.24 71.28 C80.33 54.11, 95.31 36.85, 126.91 0.34 M75.87 71.25 C100.86 41.15, 124.68 14.67, 137.54 0.31 M75.87 71.25 C91.44 52.59, 108.17 33.94, 137.54 0.31 M86.5 71.21 C108.26 47.11, 128.41 20.84, 148.17 0.27 M86.5 71.21 C109.58 42.6, 133.74 15.24, 148.17 0.27 M97.13 71.18 C117.02 51.7, 132.7 28.79, 158.8 0.24 M97.13 71.18 C119.75 42.7, 145.29 15.91, 158.8 0.24 M107.76 71.15 C126.98 48.29, 145.97 27.04, 169.43 0.2 M107.76 71.15 C121.71 53.95, 136.57 38.24, 169.43 0.2 M118.39 71.11 C136.3 47.92, 155.83 29.01, 180.06 0.17 M118.39 71.11 C131.54 54.82, 146.03 39.1, 180.06 0.17 M129.02 71.08 C140.65 55.56, 153.84 39.11, 190.69 0.13 M129.02 71.08 C152.42 45.36, 176.95 18.42, 190.69 0.13 M139.65 71.04 C153.44 58.76, 162.22 43.75, 193.44 9.16 M139.65 71.04 C157.06 51.16, 173.67 32.68, 193.44 9.16 M150.28 71.01 C164.97 56.12, 176.47 41.05, 192.92 21.95 M150.28 71.01 C161.04 59.4, 171.08 48.5, 192.92 21.95 M160.91 70.97 C172.34 57.7, 184.17 42.65, 193.05 33.99 M160.91 70.97 C167.9 63.61, 175.73 55.24, 193.05 33.99 M171.54 70.94 C177.17 64.52, 186.05 57.08, 193.19 46.03 M171.54 70.94 C175.69 66.06, 182.41 59.01, 193.19 46.03 M181.51 71.66 C183.78 68.66, 186.42 64.76, 193.32 58.07 M181.51 71.66 C186.67 67.18, 190.85 61.34, 193.32 58.07 M192.14 71.62 C192.24 71.47, 192.48 70.92, 193.45 70.11 M192.14 71.62 C192.57 71.11, 193.1 70.62, 193.45 70.11 M0.29 71.3 C0.29 71.3, 0.29 71.3, 0.29 71.3 M0.29 71.3 C0.29 71.3, 0.29 71.3, 0.29 71.3 M12.33 71.17 C9.34 67.33, 6.05 66.55, 0.26 60.67 M12.33 71.17 C10.21 68.65, 5.74 65.71, 0.26 60.67 M24.38 71.04 C18.07 65.52, 11.89 60.55, 0.22 50.04 M24.38 71.04 C15.82 62.6, 5.85 55.13, 0.22 50.04 M36.42 70.9 C24.93 59.14, 10.89 48.4, 0.19 39.41 M36.42 70.9 C22.11 59.23, 8.76 45.64, 0.19 39.41 M48.46 70.77 C32.01 57.31, 19 45.7, 0.16 28.78 M48.46 70.77 C28.91 54.58, 10.24 37.35, 0.16 28.78 M61.25 71.29 C45.9 55.69, 27.61 40.71, 0.12 18.15 M61.25 71.29 C45.9 56.08, 29.09 43.19, 0.12 18.15 M73.29 71.16 C52.52 51.46, 29.87 32.19, 0.09 7.52 M73.29 71.16 C49.72 49.98, 25.28 30.52, 0.09 7.52 M85.33 71.03 C66.09 53.32, 44.51 32.44, 3.07 -0.48 M85.33 71.03 C61.64 49.94, 37.86 31.22, 3.07 -0.48 M97.38 70.89 C74.74 50.64, 53.24 31.77, 15.87 0.04 M97.38 70.89 C73.32 49.28, 48.39 26.88, 15.87 0.04 M109.42 70.76 C78.6 44.21, 49.31 21.55, 27.91 -0.09 M109.42 70.76 C81.2 45.75, 54.67 21.19, 27.91 -0.09 M122.21 71.28 C106.28 54.57, 89.54 42.67, 39.95 -0.23 M122.21 71.28 C101.27 51.83, 79.85 32.82, 39.95 -0.23 M134.25 71.15 C106.04 48.03, 79.62 25.87, 51.99 -0.36 M134.25 71.15 C109.72 50.33, 85.54 28.88, 51.99 -0.36 M146.29 71.02 C116.91 45.09, 82.07 15.67, 64.03 -0.49 M146.29 71.02 C125.38 53.56, 104.96 35.92, 64.03 -0.49 M158.33 70.88 C132.07 48.32, 105.21 23.62, 76.83 0.03 M158.33 70.88 C135.3 51.24, 114.18 32.51, 76.83 0.03 M170.38 70.75 C138.34 42.49, 108.25 17.89, 88.87 -0.1 M170.38 70.75 C143.93 47.54, 115.83 24.17, 88.87 -0.1 M183.17 71.27 C159.98 53.33, 138.47 31.81, 100.91 -0.24 M183.17 71.27 C154.27 45.83, 124.89 19.31, 100.91 -0.24 M192.95 69.17 C169.31 47.94, 143.41 28.25, 112.95 -0.37 M192.95 69.17 C167.79 48.94, 143.88 28.31, 112.95 -0.37 M192.91 58.54 C179.11 46.57, 162.52 35.05, 124.99 -0.5 M192.91 58.54 C171.22 40.01, 149.12 20.59, 124.99 -0.5 M192.88 47.91 C172.8 32.29, 155.62 17.41, 137.78 0.02 M192.88 47.91 C173.76 29.51, 152.22 11.82, 137.78 0.02 M192.84 37.28 C178.75 23.05, 161.65 9.63, 149.83 -0.11 M192.84 37.28 C182.13 27.73, 170.3 18.39, 149.83 -0.11 M193.56 27.31 C186.28 19.74, 178.37 12.49, 161.87 -0.25 M193.56 27.31 C185.46 21.45, 179.53 14.36, 161.87 -0.25 M193.53 16.68 C187.07 10.77, 182.52 6.39, 173.91 -0.38 M193.53 16.68 C186.52 10.39, 178.19 3.29, 173.91 -0.38 M193.5 6.05 C190.69 3.75, 188.58 0.23, 185.95 -0.51 M193.5 6.05 C191.22 3.9, 189.75 2.86, 185.95 -0.51" stroke="#b2f2bb" stroke-width="1" fill="none"></path><path d="M0 0 C45.54 1.46, 91.48 1.99, 192.9 0 M0 0 C40.69 1.14, 82.12 0.67, 192.9 0 M192.9 0 C192.28 14.45, 192.38 28.5, 192.9 71.05 M192.9 0 C193.23 21.38, 192.48 41.75, 192.9 71.05 M192.9 71.05 C129.19 68.2, 63.26 69.96, 0 71.05 M192.9 71.05 C148.14 72.28, 101.95 72, 0 71.05 M0 71.05 C-0.74 50.54, -0.3 28.63, 0 0 M0 71.05 C0.28 54.44, 0.28 39.18, 0 0" stroke="#1e1e1e" stroke-width="2" fill="none"></path></g><g transform="translate(1508.7525664344466 654.1536865234375) rotate(0 47.85063171386719 21.460897435897436)"><text x="0" y="0" font-family="Virgil, Segoe UI Emoji" font-size="17.168717948717934px" fill="#1e1e1e" text-anchor="start" style="white-space: pre;" direction="ltr" dominant-baseline="text-before-edge">logic delete</text><text x="0" y="21.460897435897415" font-family="Virgil, Segoe UI Emoji" font-size="17.168717948717934px" fill="#1e1e1e" text-anchor="start" style="white-space: pre;" direction="ltr" dominant-baseline="text-before-edge">from sqlite</text></g><g stroke-linecap="round"><g transform="translate(327.8717070594465 673.4173583984375) rotate(0 277.4228515625 -2.0888671875)"><path d="M1.4 1.49 C114.12 -5.36, 230.72 -4.07, 556.03 -5.57 M-0.27 0.1 C172.66 0.19, 346.59 -0.8, 555.42 -3.78" stroke="#1e1e1e" stroke-width="2" fill="none"></path></g><g transform="translate(327.8717070594465 673.4173583984375) rotate(0 277.4228515625 -2.0888671875)"><path d="M533.78 6.92 C535.36 1.79, 541.77 2.65, 556.9 -5.51 M531.7 5.18 C538.86 2.08, 547.29 -0.28, 556.14 -3.27" stroke="#1e1e1e" stroke-width="2" fill="none"></path></g><g transform="translate(327.8717070594465 673.4173583984375) rotate(0 277.4228515625 -2.0888671875)"><path d="M533.58 -10.18 C535.17 -11.75, 541.63 -7.34, 556.9 -5.51 M531.49 -11.92 C538.75 -9.68, 547.24 -6.71, 556.14 -3.27" stroke="#1e1e1e" stroke-width="2" fill="none"></path></g></g><mask></mask><g stroke-linecap="round"><g transform="translate(1098.3150664344466 673.8294677734375) rotate(0 41.6484375 -1.2421875)"><path d="M-3.11 -3.85 C28.17 2.31, 49.2 -2.82, 79.89 -3.31 M0.89 -0.79 C30.73 -1.01, 60.3 0.91, 82.49 -3.64" stroke="#1e1e1e" stroke-width="2" fill="none"></path></g><g transform="translate(1098.3150664344466 673.8294677734375) rotate(0 41.6484375 -1.2421875)"><path d="M58.61 5.69 C68.16 5.12, 72.61 -0.59, 80.79 -4.05 M60.61 7.23 C68.75 3, 76.71 0.43, 82.09 -4.21" stroke="#1e1e1e" stroke-width="2" fill="none"></path></g><g transform="translate(1098.3150664344466 673.8294677734375) rotate(0 41.6484375 -1.2421875)"><path d="M56.6 -11.29 C66.83 -6.51, 71.92 -6.89, 80.79 -4.05 M58.6 -9.76 C67.36 -7.96, 76.04 -4.54, 82.09 -4.21" stroke="#1e1e1e" stroke-width="2" fill="none"></path></g></g><mask></mask><g stroke-linecap="round"><g transform="translate(1389.1275664344466 678.9154052734375) rotate(0 35.267578125 0.0234375)"><path d="M1.78 2.33 C18.74 -0.79, 39.06 -3.12, 74.39 -3.59 M-1.66 -1.32 C20.62 -1.05, 43.16 1.65, 71.61 0.31" stroke="#1e1e1e" stroke-width="2" fill="none"></path></g><g transform="translate(1389.1275664344466 678.9154052734375) rotate(0 35.267578125 0.0234375)"><path d="M49.11 10.31 C54.46 6.54, 61.44 3.01, 73.54 -1.51 M47.4 8.48 C54.78 5.76, 62.25 4.28, 72.15 0.44" stroke="#1e1e1e" stroke-width="2" fill="none"></path></g><g transform="translate(1389.1275664344466 678.9154052734375) rotate(0 35.267578125 0.0234375)"><path d="M48.91 -6.79 C54.24 -5.99, 61.28 -4.95, 73.54 -1.51 M47.19 -8.62 C54.57 -5.87, 62.11 -1.89, 72.15 0.44" stroke="#1e1e1e" stroke-width="2" fill="none"></path></g></g><mask></mask><g stroke-linecap="round"><g transform="translate(738.4118292379088 385.16767380213184) rotate(0 75.10005609826885 0.37384042672289297)"><path d="M-1.79 -1.65 C55.04 -3.49, 110.9 1.37, 148.82 -1.14 M-0.69 0.63 C37.36 -2.36, 72.18 -0.47, 148.71 0.45" stroke="#1e1e1e" stroke-width="2" fill="none"></path></g><g transform="translate(738.4118292379088 385.16767380213184) rotate(0 75.10005609826885 0.37384042672289297)"><path d="M124.19 7.8 C133.57 4.2, 142.46 3.47, 148.02 -0.49 M124.74 8.94 C131.45 6.41, 136.5 5.3, 147.96 0.3" stroke="#1e1e1e" stroke-width="2" fill="none"></path></g><g transform="translate(738.4118292379088 385.16767380213184) rotate(0 75.10005609826885 0.37384042672289297)"><path d="M124.46 -9.3 C133.74 -6.57, 142.53 -0.98, 148.02 -0.49 M125.01 -8.15 C131.56 -6.58, 136.55 -3.59, 147.96 0.3" stroke="#1e1e1e" stroke-width="2" fill="none"></path></g></g><mask></mask><g stroke-linecap="round"><g transform="translate(315.7594023719465 532.23828125) rotate(0 283.3095703125 -5.96484375)"><path d="M-0.49 1.16 C168.96 1.28, 339.88 -4.94, 567.42 -10.51 M-0.44 -0.37 C222.56 -7.96, 444.09 -12.96, 566.34 -12.37" stroke="#1e1e1e" stroke-width="2" fill="none"></path></g><g transform="translate(315.7594023719465 532.23828125) rotate(0 283.3095703125 -5.96484375)"><path d="M542.29 -2.21 C548.68 -4.28, 556.92 -10.19, 567.34 -10.6 M542.35 -4.12 C552.74 -6.58, 561.29 -10.39, 566 -12.92" stroke="#1e1e1e" stroke-width="2" fill="none"></path></g><g transform="translate(315.7594023719465 532.23828125) rotate(0 283.3095703125 -5.96484375)"><path d="M542.18 -19.31 C548.44 -16.25, 556.72 -17.03, 567.34 -10.6 M542.24 -21.22 C552.7 -16.98, 561.29 -14.09, 566 -12.92" stroke="#1e1e1e" stroke-width="2" fill="none"></path></g></g><mask></mask><g stroke-linecap="round"><g transform="translate(321.2808867469465 137.9923095703125) rotate(0 282.40771484375 0.25)"><path d="M-0.02 -0.86 C94.2 -0.59, 470.98 0.93, 565.16 1.15 M-1.49 1.31 C92.62 1.26, 470.08 -0.7, 564.39 -0.63" stroke="#1e1e1e" stroke-width="2" fill="none"></path></g><g transform="translate(321.2808867469465 137.9923095703125) rotate(0 282.40771484375 0.25)"><path d="M540.92 7.98 C546.21 6.11, 555.41 3.46, 564.39 -0.63 M540.92 7.98 C547.27 4.83, 554.27 3.56, 564.39 -0.63" stroke="#1e1e1e" stroke-width="2" fill="none"></path></g><g transform="translate(321.2808867469465 137.9923095703125) rotate(0 282.40771484375 0.25)"><path d="M540.88 -9.12 C546.12 -6.12, 555.33 -3.9, 564.39 -0.63 M540.88 -9.12 C547.23 -7.22, 554.24 -3.44, 564.39 -0.63" stroke="#1e1e1e" stroke-width="2" fill="none"></path></g></g><mask></mask></svg>